<svg id="Layer_1" data-name="Layer 1" xmlns="http://www.w3.org/2000/svg" viewBox="0 0 213.3 204.6"><defs><style>.cls-1{fill:#ef3059;stroke:#ce2c56;stroke-miterlimit:10;}.cls-2{fill:#f44a87;}.cls-3{fill:#f476a9;}.cls-4{fill:#ed4f7d;}.cls-5{fill:#eaae7d;}.cls-6{fill:#e44e7f;}</style></defs><title>LoadingFlower</title><path class="cls-1" d="M219,202.35c-.14,1-.31,2.37-.42,4.06a27.81,27.81,0,0,0,0,6.42,17,17,0,0,0,3.23,7.49,20.4,20.4,0,0,0,6.47,5.35c6.4,3.59,8.18,1.42,12.94,4.28,4.53,2.72,3.74,5.16,9.71,9.63a26.07,26.07,0,0,0,7.55,4.28c7.78,2.55,17.72-.12,23.72-6.42,4.06-4.26,5.26-9.08,6.47-13.91a46.27,46.27,0,0,0,1.08-15c-.22-2.83-.43-2.37-1.08-7.49a107,107,0,0,1-1.08-15c.08-5.9.82-5.7,1.08-11.77a68.29,68.29,0,0,0-1.08-16.05A214.34,214.34,0,0,1,289.75,185v19.26a53.29,53.29,0,0,0,1.08,9.63c2,10.13,3,15.2,5.39,19.26,1.95,3.29,4.89,8.26,10.78,10.7,9.95,4.12,20.15-2.32,21.57-3.21,3.81-2.4,6.15-5.27,9.71-9.63,5.45-6.69,4.62-8.24,8.62-11.77,4.64-4.09,6.47-2.65,12.94-7.49,4-3,7.16-5.35,8.63-9.63,1.7-4.94.1-9.5-1.08-12.84-2.22-6.34-6.18-10.34-9.7-13.91a59.58,59.58,0,0,0-7.55-6.42,74.68,74.68,0,0,0-14.3-7.93c-3.45-1.51-7.59-3.14-12.66-4.91-2.71-.94-5.79-2-9.23-3-4.87-1.49-10.44-3-16.65-4.48,2.16.61,18.85,5.3,33.43,9.63a49.62,49.62,0,0,1,8.63,3.21c3.74,1.87,4.41,2.88,10.78,6.42a54.85,54.85,0,0,0,6.47,3.21,47.54,47.54,0,0,0,6.47,2.14c4.38,1.08,8.28,2,11.86,1.07,5.17-1.4,7.89-6.34,9.71-9.63,5.78-10.49,3.91-21.84,3.23-25.68-1.26-7.11-3-7.3-4.31-16a127.83,127.83,0,0,1-1.08-13.91c-.16-8.72.75-10.8-1.08-13.91-2.74-4.68-8.34-6.08-9.7-6.42s-7-1.53-19.41,4.28A85.15,85.15,0,0,0,335,103.7c-5.61,4.49-7.58,7.06-22.64,23.54-6.46,7-11.84,12.86-11.87,12.83s6.5-7.29,36.67-40.65a30.39,30.39,0,0,0,4.31-5.35c1.51-2.4,8.19-13.78,3.24-25.68a27,27,0,0,0-11.86-12.84,41.68,41.68,0,0,0-14-4.28c-4.35-.53-7.41-.17-11.87-2.14-2.42-1.07-2.14-1.45-5.39-3.21-4.92-2.66-8.36-4.52-12.94-4.28a20,20,0,0,0-10.78,4.28s-.25.2-.49.42c-6.74,5.91-8.14,21-8.14,21-1,10.61.28,19.28,2.16,32.1.5,3.46,1.11,7,1.11,7,.5,3,.93,5.18,1,5.81a158.61,158.61,0,0,0,4.32,18.18,19.05,19.05,0,0,0,1.08,3.21c.93-.14-.43-29.87-12.94-55.63,0,0-7-14.43-18.34-20.33a20.07,20.07,0,0,0-6.47-2.14c-1.28-.19-9.22-1.34-14,3.21-3.8,3.61-2.67,8-6.47,9.63-1.94.84-3.55.24-5.39,0-7.46-1-15.3,4.17-19.41,8.56-8.27,8.84-6.94,20.52-6.47,23.54a26.43,26.43,0,0,0,5.39,12.84c5.66,7,13.74,8.88,21.57,10.7,8.46,2,7.79.15,17.26,2.14,3.68.77,10,3,22.64,7.48,0,0,5.19,1.84,12.94,5.35a16.25,16.25,0,0,1,2.16,1.07c-.09.23-12.35-5.54-28-9.63a106.74,106.74,0,0,0-16.18-3.2,100.48,100.48,0,0,0-21.56,0c-11.09,1-16.73,1.51-21.57,5.34a19.71,19.71,0,0,0-6.47,8.56,15.41,15.41,0,0,0-1.08,7.49c.88,7,7,11.4,7.55,11.77,2.08,1.46,3.19,1.54,4.31,3.21,1.32,2,1.21,3.94,1.08,7.49-.26,7.39-.39,11.12,0,12.84a21.79,21.79,0,0,0,4.32,8.56A27.87,27.87,0,0,0,202.4,200a21.6,21.6,0,0,0,9.71,3.21,16.83,16.83,0,0,0,7.55-1.07c8.86-3.77,11.29-17.31,17.25-23.54,1.52-1.59,3.24-3.21,3.24-3.21s2.11-2,4.37-3.89c4.69-3.93,10.72-7.88,10.72-7.88,4-2.59,9.79-6.56,18.33-12.84" transform="translate(-175.92 -41.12)"/><path class="cls-2" d="M303.16,63.87c-6.65-1.25-8.24-6.15-12.46-6.18-3.91,0-6.88,4.17-8.3,6.18-7.29,10.28,2.7,64-2.6,66.44-1.93.9-9.38-41.46-10.9-42.75s-1.75-3.41-2.08-5.15a25.11,25.11,0,0,0-7.26-12.36c-6.25-5.81-14.86-5.21-15.58-5.15-2.25.19-8.76.74-11.42,5.15-2.47,4.09.46,8.06-2.07,10.3-1.87,1.65-4.25.22-10.39,0-5.07-.18-9.93-.35-13.49,2.06-5.26,3.56-6.33,11.8-5.2,17.51,1.56,7.82,7.51,12.27,10.39,14.43,5.2,3.89,11.08,5.34,22.84,8.24,5.54,1.36,11,3.15,16.61,4.12,5.32.91,18.4,5.71,19.21,7.72.93,2.33,3.59,5.58,0,7.21-5.76,2.62-25.36-6.95-40-10.81a48.6,48.6,0,0,0-16.62-2.06,33.83,33.83,0,0,0-16.61,5.15c-3,2-6.47,4.19-7.27,8.24a10.33,10.33,0,0,0,2.08,8.24c3.36,4.14,7.62,2.06,11.42,6.18a12.37,12.37,0,0,1,3.12,9.27c-.34,3.29-2.05,3.73-3.12,8.24-.58,2.45-1.36,5.74,0,8.24,2.14,3.93,8.88,4.73,13.5,4.12,7.89-1,13.37-6.65,20.76-14.42,8.16-8.57,27.65-23.59,32.71-24.21s.8,2.8,1,6.18c.26,3.85-15,15.92-27.52,25.24-14.55,10.8-16.21,17.77-16.61,20.6a14.6,14.6,0,0,0,1,8.24c2.85,6,9.64,7.78,11.42,8.25,4.72,1.23,6.68-1.69,10.38,0,2.2,1,2.1,2.09,5.19,5.15,2.22,2.19,6.09,6,11.42,7.21.92.2,5.85,1.29,10.39-1,8-4.13,9-16,9.34-20.61.59-7.57-1.34-9.22-1-18.54.23-7,.07-10.57,2.08-14.42,1.31-2.5,3.24-17.63,5.71-17,3.48.9,3.71,22.75,5.71,46.87,1.52,18.33,3.16,21.88,6.23,23.7,6,3.53,17.16.38,20.76-6.18,4.86-8.86-5.76-20.94,0-26.79.11-.11,2.52-2.48,5.19-2.06,3.75.6,3.72,6,8.31,8.24,3.34,1.62,7.6.81,10.38-1,5.33-3.52,5.21-10.88,5.19-11.33-.36-11.12-14.73-19.16-22.84-23.69C321.86,159,300.31,155,300.57,154c.38-1.56,33.06-.64,51.39,6.7,3.83,1.54,11.44,5,14.53,2.06,1.93-1.82,1-5,4.16-8.24,1.87-1.87,3-1.51,4.15-3.09,2.25-3,.87-7.55,0-10.3-3.08-9.76-8.66-10.85-8.31-16.48.25-3.86,2.88-3.87,4.16-9.27.11-.5,2.1-9.39-2.08-13.4-6.05-5.79-21.57,1.91-23.88,3.09-13,6.66-34.06,31-37.89,29.36-3.66-1.54,13.78-26.4,15.05-32.45,1.17-5.54,2.69-5.69,4.15-11.33,1-3.76,4-15.32-2.07-21.63-4.38-4.56-12.17-5-14.54-5.15C305.9,63.67,305.78,64.36,303.16,63.87Z" transform="translate(-175.92 -41.12)"/><path class="cls-3" d="M306.39,77c-1.16-.7-6.22,2.59-8.17,7.41-.69,1.72-1,3.77-3,5.23a4.88,4.88,0,0,1-3.1,1.1,5,5,0,0,1-4.24-3c-1-2.41.77-4.51-.11-5.17s-3,.54-4.12,2.16c-1,1.37-.39,3-1,3.12s-1.19-.72-1.6-1.52c-.88-1.74-.26-3.31-.11-5.16,0-.44.41-5.45-1.18-6.17s-6.07,2.83-7.13,7.38c-.59,2.58.27,3.81,1.23,8.24,1.27,5.89,2.91,6.43,4,14.73.74,5.61.91,8.93,2.16,12.84,1.39,4.38-.62,8.26,1,12.58.2.54.77,2,.07,3.09s1,.64,0,.38c-2.24-.6-5.84-4.43-6.5-10.57-1.55-14.36-2.22-19.82-3.7-25.75a35.58,35.58,0,0,0-3.32-9.23c-3.16-5.72-8.52-11.13-10.64-10.1-2.48,1.2.13,10.88-1.83,11.41-.58.15-1.48-.52-2.11-1-1.4-1.06-1.61-2.11-2.12-2s-1.05,1.78-1,3.12c0,.66.18.86,0,1-.53.62-3.21-.62-5.25-2-4.19-2.72-4.8-5.24-6.36-5s-3.19,3.42-3,6.27c.38,5.24,6.63,9.57,7.52,10.17,1.95,1.32,3.87,2.12,4.25,4a3.2,3.2,0,0,1-1,3.12c-1.68,1.19-4.86-.7-5.23-.92-1.78-1.06-2.36-2.25-3.17-2a2,2,0,0,0-1,2.09c.26,2.34,4.45,3.4,4.25,4-.15.48-2.63.14-3.12.07-10.22-1.44-11.47-1.44-12.51-.77-2.08,1.35-2.54,4.87-1.93,7.28,1.24,4.88,7.28,6.92,10.59,8,7.52,2.54,8.68-.14,16.7,1.71,7.35,1.69,6.33,3.93,17.88,7.88,4.81,1.64,4.91,2.88,4.95,4.42,0,1.36.75,2.29-1.67,2.74-4.28.79-7-1.52-12.58-3.86-5-2.07-8.86-2.77-14.66-3.82-6.27-1.12-5.79-.33-15.66-1.72-5.87-.83-9.14-1.55-9.39-.83s2,2.22,4.23,3c2.91,1,5.1.39,5.23.92.06.23-.26.93-6.18,3.23-7.08,2.75-10.26,3.16-10.32,4.36s3.07,2.41,5.27,3c8.51,2.18,15.54-2.17,16.66-.36.65,1.06-1.25,3.3-2,4.18-4.9,5.77-12.14,5.72-12.31,8.53a2.79,2.79,0,0,0,1.09,2c1.93,1.57,5.4,0,15.54-3.44,3.54-1.2,4.88-1.6,5.18-1.14.61.92-3.14,4.85-6.08,7.36s-5.32,3.75-5.09,5.28a2.77,2.77,0,0,0,2.12,2c3.12.66,5.33-5,11.32-6.44.21-.06,1.89-.46,2.08-.05s-1.48,1.24-3.06,3.17c-.9,1.1-2.62,3.21-2,5.21.3.91-1.06-.17-.12-.2,1.57-.06,5.25-4.47,7.55-7.49,2-2.6,7-3.28,11.86-6.42,4-2.59-1.42,1.35,4.28-2.94,3.57-2.68,8.3-6.24,9.26-5.36s-1.79,4.92-2,5.2c-3.76,5.79-7.53,6.8-17,13.8-4.24,3.15-7.42,5.62-8.56,9.49-.49,1.64-1,4.53.11,5.16,2.34,1.36,9.37-9,12.33-7.5,1.32.68,1.17,3.39,1.13,4.11-.26,4.81-4.56,7.68-4,8.35s3.37-1,5.16-2.17c2.07-1.36,2.79-2.32,3.08-2.14.66.42-2.63,5.77-5,11.48-3.31,8.12-5.89,19.89-2.64,21.75,1.87,1.07,5.16-1.42,6.2-2.2,8.74-6.59,8.56-20,10-19.85.75.09,1.13,4,1.17,6.18.07,3.21-.53,4.81.12,5.16.86.47,3.55-1.47,5.11-4.24,3.57-6.37-1-13.28,2.76-16.6,1-.84,1.52-.9,3.08-2.13,1.19-.94-.38-3.59.11-5.22,1.93-6.42,2.17-10.2,3.53-18.62.48-3,1.43-6.3,1.94-6.24.82.09-.06,8.64.32,14.45,1.09,16.84,11.37,33.48,17.38,32.69a4.7,4.7,0,0,0,3.08-2.13c2.14-3.37-2-7.48-.3-13.43.06-.19.94-3.17,2-3.14,1.52,0,2,6.14,3.26,6.13.89,0,1.72-2.89,2-5.21.32-3.13-.46-5-.12-5.17.81-.31,3.79,10.77,12.9,18.32.93.77,6.55,5.34,8.42,3.95,2.1-1.55-1.64-9.78-2.33-11.31-3.75-8.27-9.24-13.72-8.65-14.28s4.6,4,6.32,3c1.18-.7.92-3.83-.14-6.19-2.15-4.8-7.66-6.65-7.45-7.07s5.38,2.8,11.5,1.81c1.49-.24,3-.46,3.1-1.1.2-2.18-37-12.79-36.26-15.31.19-.7,4.22-.33,15.17,3.37,13.1,4.43,20.43,10.65,22.06,8.82,1-1.16-.73-5-3.28-7.16-3.13-2.67-7.38-2.82-7.35-2.94s7,2.16,13.53-.29c1.22-.46,3-1.14,3.07-2.14.11-2.79-13.81-5.07-13.66-5.9.19-1.11,24.68,4.27,26,.47.87-2.41-7.17-9.49-15.84-10-4.12-.24-8,1-8.33.18s2.89-1.86,6.13-5.3c1.64-1.73,5-5.85,4-7.32-1.68-2.48-14.54,4.41-16.63,1.39-.94-1.34,1.06-3.53-.12-5.16-1.35-1.87-2.47-1.35-3.24-1.2-12,2.39-22.51,24.25-24.38,23.5-.7-.28-.62-3.63.88-7.25,3.54-8.54,11.56-10.22,21.4-21.13,1.69-1.87,3.81-4.43,3-6.27-.63-1.41-2.89-1.91-4.21-2a8.87,8.87,0,0,0-4.14,1.12c-3.84,1.77-4.42,3.44-6.18,3.23a3.88,3.88,0,0,1-3.19-3c-.28-2.19,2.68-2.92,4-6.28s.46-7.67-1.23-8.24c-2.2-.76-5.21,5.1-7.19,4.29-.62-.26-1.17-1.18-1.16-5.14C305.15,81.8,307.48,77.61,306.39,77Z" transform="translate(-175.92 -41.12)"/><path class="cls-4" d="M291.42,131.41c4.56-6.55-.39-13.14,3.37-26.41,1.11-3.93,2.27-5.88,3.83-6.16,2-.36,4.41,2.15,5.57,4.43,2.38,4.69.54,10.16-2.54,19.3-1.26,3.74-1.93,7.72-3.72,11.23a5.91,5.91,0,0,0-.92,3.06c.11,3.66,4.72,7.53,8.11,6.9,2-.37,2.54-2.16,4.85-5.17,5.24-6.83,11.87-9.8,15.64-11.49,3.2-1.44,9.11-3.57,9.89-2.25.86,1.47-5.06,6.59-5.8,7.22-7.69,6.57-15,8.14-14.7,9.44.07.3.57.74,9,.82,7.23.06,9.56-.24,10,.78.47,1.23-2,3.81-4.86,5.18-3.29,1.59-5.93,1-13.9.31-10.58-.92-11.65-.38-11.92.27-.71,1.64,3.17,5.22,6.14,8,3.72,3.43,6.14,4.62,6.12,6.95,0,1.51-1,3.07-1.91,3.08-1.06,0-1.22-2.16-3.08-4-2.32-2.27-6.22-2.95-7-1.87s1.64,3.06,4.16,8c2.34,4.6,4.21,10.49,3.24,11.07s-5.25-3.73-8.16-8.93c-4.32-7.73-3.18-13.08-7.3-15a7.43,7.43,0,0,0-6,.14c-1,.51-3.49,2.09-5.68,12.28-2,9.09-1.12,13-3.65,14.26a5,5,0,0,1-6-1.89c-.79-1.53.07-3.42,1.83-7.13,2.15-4.56,4.11-6.91,3.81-7.18s-3.21,1.94-5.85,5.2c-4.23,5.21-4.8,9.31-6.74,9.26-1.33,0-2.81-2-3.08-4-.91-6.75,12.23-13.46,11.6-14.44-.34-.53-4.32,1.35-5.91,2.16-2.82,1.43-3.75,2.32-3.93,2.11-.36-.41,2.64-5,7.78-7.26,1.46-.64,1.8-.53,3-1.08,4-1.87,7.63-6.09,6.77-8.25-.8-2-5.3-1.91-8-1.85-7.89.17-13.2,3.5-13.86,2.34-.38-.67,1-2.3,1.91-3.08,1.9-1.7,4-1.84,3.93-2.12s-2.9-.5-6.95.16c-6.94,1.13-9,3.38-12.87,2.31-2-.55-4.16-1.9-4-2.94s2.31-1.57,5.91-2.16c7.14-1.18,10.72-1.77,16.86-1.39,9.8.6,14.57,2.67,14.95,1.69.46-1.2-6.08-5.27-12.1-7.83a100.35,100.35,0,0,0-15-4.73c-5.32-1.26-9-1.74-9-2.84,0-.85,2.15-1.74,3.93-2.11,4.46-.92,8.08,1.17,20,6.64,3.44,1.58,5.55,2.5,6,1.89.6-.8-.8-3.63-3.09-5-1.71-1-2.9-.61-5-.9-5.47-.78-9.39-5.29-9.08-5.88.16-.31,1.59.32,6,.88,1.12.15,1.89.22,2,0,.25-.67-4.54-2-5.08-4.95-.28-1.53.55-3.64,1.89-4.1,3.18-1.07,8.95,7.22,12.2,11.88,4.53,6.51,5.3,9.45,8.18,10C286.12,136.68,289.53,134.11,291.42,131.41Z" transform="translate(-175.92 -41.12)"/><ellipse class="cls-5" cx="113.3" cy="103.23" rx="17.79" ry="17.65"/><ellipse class="cls-6" cx="283.42" cy="136.52" rx="3.24" ry="3.21" transform="translate(-204.86 58.07) rotate(-18.9)"/><ellipse class="cls-6" cx="289.53" cy="144.57" rx="4.32" ry="4.28" transform="translate(-207.14 60.48) rotate(-18.9)"/><ellipse class="cls-6" cx="284.53" cy="152.55" rx="3.24" ry="3.21" transform="translate(-209.99 59.29) rotate(-18.9)"/><ellipse class="cls-6" cx="279.23" cy="144.42" rx="3.24" ry="3.21" transform="translate(-207.64 57.14) rotate(-18.9)"/><ellipse class="cls-6" cx="296.65" cy="151.69" rx="3.24" ry="3.21" transform="matrix(0.95, -0.32, 0.32, 0.95, -209.06, 63.17)"/><ellipse class="cls-6" cx="295.04" cy="135.06" rx="3.24" ry="3.21" transform="translate(-203.76 61.75) rotate(-18.9)"/><ellipse class="cls-6" cx="298.16" cy="142.84" rx="3.24" ry="3.21" transform="translate(-206.11 63.18) rotate(-18.9)"/></svg>